<svg width="20" height="14" viewBox="0 0 20 14" fill="none" xmlns="http://www.w3.org/2000/svg">
<path d="M12.4308 13.8186C12.2408 13.8186 12.0508 13.7486 11.9008 13.5986C11.6108 13.3086 11.6108 12.8286 11.9008 12.5386L17.4408 6.99863L11.9008 1.45865C11.6108 1.16865 11.6108 0.688652 11.9008 0.398652C12.1908 0.108652 12.6708 0.108652 12.9608 0.398652L19.0308 6.46863C19.3208 6.75863 19.3208 7.23863 19.0308 7.52863L12.9608 13.5986C12.8108 13.7486 12.6208 13.8186 12.4308 13.8186Z" fill="white"/>
<path d="M18.3317 7.74854H1.50171C1.09171 7.74854 0.751709 7.40854 0.751709 6.99854C0.751709 6.58854 1.09171 6.24854 1.50171 6.24854H18.3317C18.7417 6.24854 19.0817 6.58854 19.0817 6.99854C19.0817 7.40854 18.7417 7.74854 18.3317 7.74854Z" fill="white"/>
</svg>
