<svg width="80" height="80" viewBox="0 0 80 80" fill="none" xmlns="http://www.w3.org/2000/svg">
<rect width="80" height="80" rx="40" fill="#E6E6E6"/>
<path d="M40.1667 36.9048C42.3328 36.9048 44.4504 36.2624 46.2515 35.059C48.0526 33.8555 49.4564 32.145 50.2854 30.1437C51.1143 28.1424 51.3312 25.9402 50.9086 23.8157C50.486 21.6911 49.4429 19.7396 47.9112 18.2079C46.3795 16.6762 44.4279 15.6331 42.3034 15.2105C40.1788 14.7879 37.9767 15.0047 35.9754 15.8337C33.9741 16.6627 32.2636 18.0665 31.0601 19.8676C29.8566 21.6687 29.2143 23.7862 29.2143 25.9524C29.2143 28.8571 30.3682 31.6429 32.4222 33.6969C34.4761 35.7509 37.2619 36.9048 40.1667 36.9048Z" fill="#0C273B"/>
<path d="M56.5952 64.2856C57.3214 64.2856 58.0179 63.9971 58.5314 63.4837C59.0449 62.9702 59.3333 62.2737 59.3333 61.5475C59.3333 56.4642 57.314 51.5891 53.7195 47.9946C50.1251 44.4002 45.25 42.3809 40.1667 42.3809C35.0833 42.3809 30.2082 44.4002 26.6138 47.9946C23.0193 51.5891 21 56.4642 21 61.5475C21 62.2737 21.2885 62.9702 21.802 63.4837C22.3155 63.9971 23.0119 64.2856 23.7381 64.2856H56.5952Z" fill="#0C273B"/>
</svg>
